<mxfile host="65bd71144e">
    <diagram id="6SdW7Xw68i-UTDWBZWGj" name="1-simple-pub-sub">
        <mxGraphModel dx="3374" dy="3336" grid="1" gridSize="10" guides="1" tooltips="1" connect="1" arrows="1" fold="1" page="1" pageScale="1" pageWidth="850" pageHeight="1100" math="0" shadow="0">
            <root>
                <mxCell id="0"/>
                <mxCell id="1" parent="0"/>
                <mxCell id="15" value="" style="whiteSpace=wrap;html=1;fontFamily=Helvetica;fontSize=11;fontColor=default;labelBackgroundColor=default;movable=1;resizable=1;rotatable=1;deletable=1;editable=1;locked=0;connectable=1;" vertex="1" parent="1">
                    <mxGeometry x="-390" width="1450" height="1230" as="geometry"/>
                </mxCell>
                <mxCell id="11" value="" style="rounded=1;whiteSpace=wrap;html=1;fontFamily=Helvetica;fontSize=11;labelBackgroundColor=default;fillColor=#f8cecc;strokeColor=#b85450;" vertex="1" parent="1">
                    <mxGeometry x="-260" y="615" width="380" height="400" as="geometry"/>
                </mxCell>
                <mxCell id="10" value="" style="rounded=1;whiteSpace=wrap;html=1;fontFamily=Helvetica;fontSize=11;labelBackgroundColor=default;fillColor=#dae8fc;strokeColor=#6c8ebf;" vertex="1" parent="1">
                    <mxGeometry x="495" y="330" width="380" height="400" as="geometry"/>
                </mxCell>
                <mxCell id="5" style="edgeStyle=orthogonalEdgeStyle;html=1;exitX=0;exitY=0.5;exitDx=0;exitDy=0;entryX=1;entryY=0.5;entryDx=0;entryDy=0;curved=1;" edge="1" parent="1" source="2" target="4">
                    <mxGeometry relative="1" as="geometry"/>
                </mxCell>
                <mxCell id="13" value="msg" style="edgeLabel;html=1;align=center;verticalAlign=middle;resizable=0;points=[];fontFamily=Helvetica;fontSize=15;fontColor=default;labelBackgroundColor=default;" vertex="1" connectable="0" parent="5">
                    <mxGeometry x="0.1697" y="-1" relative="1" as="geometry">
                        <mxPoint x="-14" y="46" as="offset"/>
                    </mxGeometry>
                </mxCell>
                <mxCell id="2" value="msg_publisher" style="ellipse;whiteSpace=wrap;html=1;fillColor=#1ba1e2;strokeColor=#006EAF;fontColor=#ffffff;fontSize=16;fontStyle=1" vertex="1" parent="1">
                    <mxGeometry x="585" y="460" width="200" height="200" as="geometry"/>
                </mxCell>
                <mxCell id="3" value="msg_subscriber" style="ellipse;whiteSpace=wrap;html=1;fillColor=#f0a30a;fontColor=#000000;strokeColor=#BD7000;fontSize=16;" vertex="1" parent="1">
                    <mxGeometry x="-130" y="810" width="185" height="185" as="geometry"/>
                </mxCell>
                <mxCell id="6" style="edgeStyle=orthogonalEdgeStyle;html=1;entryX=1;entryY=0.5;entryDx=0;entryDy=0;curved=1;" edge="1" parent="1" source="4" target="3">
                    <mxGeometry relative="1" as="geometry"/>
                </mxCell>
                <mxCell id="14" value="msg" style="edgeLabel;html=1;align=center;verticalAlign=middle;resizable=0;points=[];fontFamily=Helvetica;fontSize=16;fontColor=default;labelBackgroundColor=default;" vertex="1" connectable="0" parent="6">
                    <mxGeometry x="-0.1433" y="13" relative="1" as="geometry">
                        <mxPoint as="offset"/>
                    </mxGeometry>
                </mxCell>
                <mxCell id="4" value="TOPIC" style="rounded=1;whiteSpace=wrap;html=1;fillColor=#e3c800;strokeColor=#B09500;fontColor=#000000;" vertex="1" parent="1">
                    <mxGeometry x="295" y="780" width="140" height="70" as="geometry"/>
                </mxCell>
                <mxCell id="9" value="&lt;span&gt;NODE 1&lt;/span&gt;" style="text;html=1;align=center;verticalAlign=middle;resizable=0;points=[];autosize=1;strokeColor=none;fillColor=none;fontFamily=Helvetica;fontSize=21;fontColor=default;labelBackgroundColor=none;strokeWidth=3;fontStyle=1" vertex="1" parent="1">
                    <mxGeometry x="515" y="340" width="100" height="40" as="geometry"/>
                </mxCell>
                <mxCell id="12" value="&lt;span&gt;NODE 2&lt;/span&gt;" style="text;html=1;align=center;verticalAlign=middle;resizable=0;points=[];autosize=1;strokeColor=none;fillColor=none;fontFamily=Helvetica;fontSize=21;fontColor=default;labelBackgroundColor=none;strokeWidth=3;fontStyle=1" vertex="1" parent="1">
                    <mxGeometry x="-185" y="630" width="100" height="40" as="geometry"/>
                </mxCell>
                <mxCell id="16" value="&lt;h1&gt;&lt;font&gt;Publisher- Subscriber Model&lt;/font&gt;&lt;/h1&gt;" style="text;html=1;align=center;verticalAlign=middle;resizable=0;points=[];autosize=1;strokeColor=none;fillColor=none;fontFamily=Helvetica;fontSize=30;fontColor=default;labelBackgroundColor=default;" vertex="1" parent="1">
                    <mxGeometry x="-130" width="840" height="170" as="geometry"/>
                </mxCell>
                <mxCell id="31" value="" style="whiteSpace=wrap;html=1;fontFamily=Helvetica;fontSize=11;fontColor=default;labelBackgroundColor=default;movable=1;resizable=1;rotatable=1;deletable=1;editable=1;locked=0;connectable=1;" vertex="1" parent="1">
                    <mxGeometry x="-380" y="1280" width="1450" height="1230" as="geometry"/>
                </mxCell>
                <mxCell id="32" value="" style="rounded=1;whiteSpace=wrap;html=1;fontFamily=Helvetica;fontSize=11;labelBackgroundColor=default;fillColor=#f8cecc;strokeColor=#b85450;" vertex="1" parent="1">
                    <mxGeometry x="-195" y="1890" width="380" height="400" as="geometry"/>
                </mxCell>
                <mxCell id="33" value="" style="rounded=1;whiteSpace=wrap;html=1;fontFamily=Helvetica;fontSize=11;labelBackgroundColor=default;fillColor=#dae8fc;strokeColor=#6c8ebf;" vertex="1" parent="1">
                    <mxGeometry x="505" y="1610" width="380" height="400" as="geometry"/>
                </mxCell>
                <mxCell id="34" style="edgeStyle=orthogonalEdgeStyle;html=1;exitX=0;exitY=0.5;exitDx=0;exitDy=0;entryX=1;entryY=0.5;entryDx=0;entryDy=0;curved=1;" edge="1" parent="1" source="36" target="40">
                    <mxGeometry relative="1" as="geometry"/>
                </mxCell>
                <mxCell id="35" value="msg" style="edgeLabel;html=1;align=center;verticalAlign=middle;resizable=0;points=[];fontFamily=Helvetica;fontSize=15;fontColor=default;labelBackgroundColor=default;" vertex="1" connectable="0" parent="34">
                    <mxGeometry x="0.1697" y="-1" relative="1" as="geometry">
                        <mxPoint x="-14" y="46" as="offset"/>
                    </mxGeometry>
                </mxCell>
                <mxCell id="36" value="hello_publisher" style="ellipse;whiteSpace=wrap;html=1;fillColor=#1ba1e2;strokeColor=#006EAF;fontColor=#ffffff;fontSize=16;fontStyle=1" vertex="1" parent="1">
                    <mxGeometry x="595" y="1740" width="200" height="200" as="geometry"/>
                </mxCell>
                <mxCell id="37" value="hello_subscriber" style="ellipse;whiteSpace=wrap;html=1;fillColor=#f0a30a;fontColor=#000000;strokeColor=#BD7000;fontSize=16;" vertex="1" parent="1">
                    <mxGeometry x="-70" y="2065" width="185" height="185" as="geometry"/>
                </mxCell>
                <mxCell id="38" style="edgeStyle=orthogonalEdgeStyle;html=1;entryX=1;entryY=0.5;entryDx=0;entryDy=0;curved=1;" edge="1" parent="1" source="40" target="37">
                    <mxGeometry relative="1" as="geometry"/>
                </mxCell>
                <mxCell id="39" value="msg" style="edgeLabel;html=1;align=center;verticalAlign=middle;resizable=0;points=[];fontFamily=Helvetica;fontSize=16;fontColor=default;labelBackgroundColor=default;" vertex="1" connectable="0" parent="38">
                    <mxGeometry x="-0.1433" y="13" relative="1" as="geometry">
                        <mxPoint as="offset"/>
                    </mxGeometry>
                </mxCell>
                <mxCell id="40" value="/chatter" style="rounded=1;whiteSpace=wrap;html=1;fillColor=#e3c800;strokeColor=#B09500;fontColor=#000000;fontSize=16;" vertex="1" parent="1">
                    <mxGeometry x="305" y="2060" width="140" height="70" as="geometry"/>
                </mxCell>
                <mxCell id="41" value="Taker Node" style="text;html=1;align=center;verticalAlign=middle;resizable=0;points=[];autosize=1;strokeColor=none;fillColor=none;fontFamily=Helvetica;fontSize=21;fontColor=default;labelBackgroundColor=none;strokeWidth=3;fontStyle=1" vertex="1" parent="1">
                    <mxGeometry x="565" y="1620" width="130" height="40" as="geometry"/>
                </mxCell>
                <mxCell id="43" value="&lt;h1&gt;&lt;font&gt;Publisher- Subscriber Example&lt;/font&gt;&lt;/h1&gt;" style="text;html=1;align=center;verticalAlign=middle;resizable=0;points=[];autosize=1;strokeColor=none;fillColor=none;fontFamily=Helvetica;fontSize=30;fontColor=default;labelBackgroundColor=default;" vertex="1" parent="1">
                    <mxGeometry x="-155" y="1280" width="910" height="170" as="geometry"/>
                </mxCell>
                <mxCell id="44" value="Listener Node" style="text;html=1;align=center;verticalAlign=middle;resizable=0;points=[];autosize=1;strokeColor=none;fillColor=none;fontFamily=Helvetica;fontSize=21;fontColor=default;labelBackgroundColor=none;strokeWidth=3;fontStyle=1" vertex="1" parent="1">
                    <mxGeometry x="-145" y="1910" width="150" height="40" as="geometry"/>
                </mxCell>
                <mxCell id="45" value="&lt;pre&gt;{Interface_type}&lt;/pre&gt;" style="text;html=1;align=center;verticalAlign=middle;resizable=0;points=[];autosize=1;strokeColor=none;fillColor=none;fontFamily=Helvetica;fontSize=11;fontColor=default;labelBackgroundColor=default;" vertex="1" parent="1">
                    <mxGeometry x="510" y="745" width="130" height="50" as="geometry"/>
                </mxCell>
                <mxCell id="46" value="&lt;pre&gt;{Interface_type}&lt;/pre&gt;" style="text;html=1;align=center;verticalAlign=middle;resizable=0;points=[];autosize=1;strokeColor=none;fillColor=none;fontFamily=Helvetica;fontSize=11;fontColor=default;labelBackgroundColor=default;" vertex="1" parent="1">
                    <mxGeometry x="175" y="850" width="130" height="50" as="geometry"/>
                </mxCell>
                <mxCell id="47" value="&lt;pre&gt;{std_msgs/msg/string}&lt;br&gt;&lt;/pre&gt;" style="text;html=1;align=center;verticalAlign=middle;resizable=0;points=[];autosize=1;strokeColor=none;fillColor=none;fontFamily=Helvetica;fontSize=15;fontColor=default;labelBackgroundColor=default;" vertex="1" parent="1">
                    <mxGeometry x="525" y="2050" width="210" height="60" as="geometry"/>
                </mxCell>
                <mxCell id="49" value="&lt;pre&gt;{std_msgs/msg/string}&lt;br&gt;&lt;/pre&gt;" style="text;html=1;align=center;verticalAlign=middle;resizable=0;points=[];autosize=1;strokeColor=none;fillColor=none;fontFamily=Helvetica;fontSize=15;fontColor=default;labelBackgroundColor=default;" vertex="1" parent="1">
                    <mxGeometry x="195" y="2145" width="210" height="60" as="geometry"/>
                </mxCell>
                <mxCell id="50" value="" style="whiteSpace=wrap;html=1;fontFamily=Helvetica;fontSize=11;fontColor=default;labelBackgroundColor=default;movable=1;resizable=1;rotatable=1;deletable=1;editable=1;locked=0;connectable=1;" vertex="1" parent="1">
                    <mxGeometry x="-380" y="-1250" width="1450" height="1230" as="geometry"/>
                </mxCell>
                <mxCell id="52" value="" style="rounded=1;whiteSpace=wrap;html=1;fontFamily=Helvetica;fontSize=11;labelBackgroundColor=default;fillColor=#dae8fc;strokeColor=#6c8ebf;" vertex="1" parent="1">
                    <mxGeometry x="425" y="-910" width="380" height="400" as="geometry"/>
                </mxCell>
                <mxCell id="60" value="&lt;span&gt;NODE1&amp;nbsp;&lt;/span&gt;" style="text;html=1;align=center;verticalAlign=middle;resizable=0;points=[];autosize=1;strokeColor=none;fillColor=none;fontFamily=Helvetica;fontSize=21;fontColor=default;labelBackgroundColor=none;strokeWidth=3;fontStyle=1" vertex="1" parent="1">
                    <mxGeometry x="465" y="-890" width="100" height="40" as="geometry"/>
                </mxCell>
                <mxCell id="62" value="&lt;h1&gt;&lt;font&gt;Single Node Model&lt;/font&gt;&lt;/h1&gt;" style="text;html=1;align=center;verticalAlign=middle;resizable=0;points=[];autosize=1;strokeColor=none;fillColor=none;fontFamily=Helvetica;fontSize=30;fontColor=default;labelBackgroundColor=default;" vertex="1" parent="1">
                    <mxGeometry x="40" y="-1240" width="560" height="170" as="geometry"/>
                </mxCell>
                <mxCell id="73" value="" style="group" vertex="1" connectable="0" parent="1">
                    <mxGeometry x="-210" y="-620" width="380" height="400" as="geometry"/>
                </mxCell>
                <mxCell id="72" value="" style="rounded=1;whiteSpace=wrap;html=1;fontFamily=Helvetica;fontSize=11;labelBackgroundColor=default;fillColor=#f8cecc;strokeColor=#b85450;" vertex="1" parent="73">
                    <mxGeometry width="380" height="400" as="geometry"/>
                </mxCell>
                <mxCell id="71" value="&lt;span&gt;NODE2&amp;nbsp;&lt;/span&gt;" style="text;html=1;align=center;verticalAlign=middle;resizable=0;points=[];autosize=1;strokeColor=none;fillColor=none;fontFamily=Helvetica;fontSize=21;fontColor=default;labelBackgroundColor=none;strokeWidth=3;fontStyle=1" vertex="1" parent="73">
                    <mxGeometry x="20" y="30" width="100" height="40" as="geometry"/>
                </mxCell>
            </root>
        </mxGraphModel>
    </diagram>
</mxfile>